<?xml version="1.0" standalone="no"?>
<!DOCTYPE svg PUBLIC "-//W3C//DTD SVG 20010904//EN"
 "http://www.w3.org/TR/2001/REC-SVG-20010904/DTD/svg10.dtd">
<svg version="1.0" xmlns="http://www.w3.org/2000/svg"
 width="500.000000pt" height="500.000000pt" viewBox="0 0 500.000000 500.000000"
 preserveAspectRatio="xMidYMid meet">

<g transform="translate(0.000000,500.000000) scale(0.100000,-0.100000)"
fill="#000000" stroke="none">
<path d="M1735 2800 l-170 -170 112 -112 112 -112 65 70 66 69 140 -142 c78
-79 145 -143 149 -143 10 0 61 54 61 66 0 5 -61 70 -135 144 -74 74 -135 140
-135 146 0 7 29 39 64 71 l65 59 -112 112 -112 112 -170 -170z"/>
<path d="M3221 2900 c-205 -43 -312 -262 -215 -440 86 -158 308 -207 487 -107
l37 21 0 118 0 118 -65 0 -65 0 0 -85 c0 -83 -1 -86 -26 -95 -43 -17 -124 -12
-168 10 -100 49 -129 200 -55 285 62 71 178 85 259 31 l41 -27 45 37 45 36
-21 23 c-54 57 -203 95 -299 75z"/>
<path d="M1080 2605 l0 -295 65 0 65 0 0 105 0 105 135 0 135 0 0 55 0 55
-135 0 -136 0 3 78 3 77 153 3 152 3 0 54 0 55 -220 0 -220 0 0 -295z"/>
<path d="M2380 2605 l0 -295 65 0 65 0 0 80 0 80 64 0 65 0 56 -80 56 -80 70
0 c38 0 69 3 69 6 0 3 -27 44 -61 91 l-60 85 41 35 c54 46 72 84 73 153 0 69
-24 122 -73 161 -54 43 -134 59 -292 59 l-138 0 0 -295z m330 157 c34 -25 47
-80 29 -118 -21 -43 -71 -64 -156 -64 l-73 0 0 98 c0 54 3 102 8 106 14 15
165 -3 192 -22z"/>
<path d="M3667 2893 c-4 -3 -7 -136 -7 -295 l0 -288 230 0 230 0 0 55 0 55
-160 0 -160 0 0 65 0 65 135 0 135 0 0 55 0 55 -135 0 -135 0 0 65 0 65 155 0
155 0 0 55 0 55 -218 0 c-120 0 -222 -3 -225 -7z"/>
<path d="M1060 1980 c0 -40 4 -70 10 -70 6 0 10 24 11 53 l0 52 22 -42 c11
-24 24 -43 29 -43 4 0 18 19 30 43 l23 42 6 -55 6 -55 1 73 c1 43 -2 72 -8 72
-6 0 -20 -20 -32 -45 -12 -25 -25 -45 -28 -45 -3 0 -16 20 -28 45 -12 25 -26
45 -32 45 -6 0 -10 -29 -10 -70z"/>
<path d="M1416 1985 c-16 -36 -26 -69 -23 -72 4 -3 9 2 13 11 8 22 94 23 94 1
0 -8 5 -15 10 -15 6 0 10 2 10 5 0 15 -60 135 -67 135 -5 0 -21 -29 -37 -65z
m64 -17 c0 -5 -11 -8 -25 -8 -27 0 -31 10 -14 42 11 21 12 21 25 -3 7 -13 13
-27 14 -31z"/>
<path d="M1712 1978 l1 -73 6 55 6 55 40 -52 c21 -29 43 -53 47 -53 4 0 7 33
6 73 -1 62 -2 65 -5 20 -2 -29 -7 -53 -11 -53 -4 0 -23 23 -42 50 -19 27 -38
50 -42 50 -5 0 -7 -33 -6 -72z"/>
<path d="M2036 1985 c-16 -36 -26 -69 -23 -72 4 -3 9 2 13 11 8 22 94 23 94 1
0 -8 5 -15 10 -15 6 0 10 2 10 5 0 15 -60 135 -67 135 -5 0 -21 -29 -37 -65z
m64 -17 c0 -5 -11 -8 -25 -8 -27 0 -31 10 -14 42 11 21 12 21 25 -3 7 -13 13
-27 14 -31z"/>
<path d="M2336 2029 c-66 -52 9 -149 85 -109 20 11 26 45 9 55 -6 3 -10 -5
-10 -18 0 -51 -82 -36 -88 16 -5 41 15 59 60 55 39 -4 51 5 22 16 -28 11 -51
6 -78 -15z"/>
<path d="M2630 1980 l0 -70 50 0 c28 0 50 5 50 10 0 6 -18 10 -40 10 -33 0
-40 3 -40 20 0 16 7 20 35 20 19 0 35 5 35 10 0 6 -16 10 -35 10 -28 0 -35 4
-35 20 0 17 7 20 40 20 22 0 40 5 40 10 0 6 -22 10 -50 10 l-50 0 0 -70z"/>
<path d="M2920 1980 c0 -40 4 -70 10 -70 6 0 10 24 11 53 l0 52 22 -42 c11
-24 24 -43 29 -43 4 0 18 19 30 43 l23 42 6 -55 6 -55 1 73 c1 43 -2 72 -8 72
-6 0 -20 -20 -32 -45 -12 -25 -25 -45 -28 -45 -3 0 -16 20 -28 45 -12 25 -26
45 -32 45 -6 0 -10 -29 -10 -70z"/>
<path d="M3260 1980 l0 -70 50 0 c28 0 50 5 50 10 0 6 -18 10 -40 10 -33 0
-40 3 -40 20 0 16 7 20 35 20 19 0 35 5 35 10 0 6 -16 10 -35 10 -28 0 -35 4
-35 20 0 17 7 20 40 20 22 0 40 5 40 10 0 6 -22 10 -50 10 l-50 0 0 -70z"/>
<path d="M3550 1980 c0 -81 17 -95 22 -18 l3 53 38 -53 c21 -28 43 -52 48 -52
5 0 9 32 9 70 0 80 -17 96 -22 19 l-3 -50 -38 50 c-20 28 -42 51 -47 51 -6 0
-10 -31 -10 -70z"/>
<path d="M3850 2040 c0 -5 11 -10 25 -10 23 0 24 -4 28 -62 l3 -63 2 63 c2 59
3 62 27 62 14 0 25 5 25 10 0 6 -25 10 -55 10 -30 0 -55 -4 -55 -10z"/>
</g>
</svg>
